<?xml version="1.0" encoding="UTF-8"?>
<svg width="20px" height="18px" viewBox="0 0 20 18" version="1.1" xmlns="http://www.w3.org/2000/svg" xmlns:xlink="http://www.w3.org/1999/xlink">
    <g stroke="none" stroke-width="1" fill="none" fill-rule="evenodd">
        <g transform="translate(-129.000000, -362.000000)" fill="#000000">
            <path d="M144.82,378.08 C145.340003,378.08 145.826664,377.950001 146.28,377.69 C146.733336,377.429999 147.093332,377.076669 147.36,376.63 C147.626668,376.183331 147.76,375.700003 147.76,375.18 C147.76,374.659997 147.626668,374.173336 147.36,373.72 C147.093332,373.266664 146.733336,372.906668 146.28,372.64 C145.826664,372.373332 145.340003,372.24 144.82,372.24 C144.299997,372.24 143.820002,372.373332 143.38,372.64 C142.939998,372.906668 142.590001,373.266664 142.33,373.72 C142.069999,374.173336 141.94,374.659997 141.94,375.18 C141.94,375.700003 142.069999,376.183331 142.33,376.63 C142.590001,377.076669 142.939998,377.429999 143.38,377.69 C143.820002,377.950001 144.299997,378.08 144.82,378.08 Z M144.82,371 C145.593337,371 146.296663,371.186665 146.93,371.56 C147.563336,371.933335 148.066665,372.436664 148.44,373.07 C148.813335,373.703336 149,374.406663 149,375.18 C149,375.953337 148.813335,376.65333 148.44,377.28 C148.066665,377.90667 147.563336,378.403331 146.93,378.77 C146.296663,379.136668 145.593337,379.32 144.82,379.32 C144.046663,379.32 143.34667,379.136668 142.72,378.77 C142.09333,378.403331 141.596668,377.90667 141.23,377.28 C140.863332,376.65333 140.68,375.953337 140.68,375.18 C140.68,374.406663 140.863332,373.703336 141.23,373.07 C141.596668,372.436664 142.09333,371.933335 142.72,371.56 C143.34667,371.186665 144.046663,371 144.82,371 Z M137.98,369.74 L139.82,371.66 L139.82,376.82 L138.18,376.82 L138.18,372.68 L135.48,370.34 C135.173332,370.126666 135.02,369.733336 135.02,369.16 C135.02,368.693331 135.173332,368.306668 135.48,368 L137.82,365.64 C138.033334,365.333332 138.426664,365.18 139,365.18 C139.253335,365.18 139.486666,365.216666 139.7,365.29 C139.913334,365.363334 140.119999,365.479999 140.32,365.64 L141.94,367.24 C142.753337,368.080004 143.739994,368.5 144.9,368.5 L144.9,370.18 C143.259992,370.18 141.853339,369.593339 140.68,368.42 L140.02,367.76 L137.98,369.74 Z M133.18,378.08 C133.700003,378.08 134.183331,377.950001 134.63,377.69 C135.076669,377.429999 135.429999,377.076669 135.69,376.63 C135.950001,376.183331 136.08,375.700003 136.08,375.18 C136.08,374.659997 135.950001,374.173336 135.69,373.72 C135.429999,373.266664 135.076669,372.906668 134.63,372.64 C134.183331,372.373332 133.700003,372.24 133.18,372.24 C132.659997,372.24 132.176669,372.373332 131.73,372.64 C131.283331,372.906668 130.926668,373.266664 130.66,373.72 C130.393332,374.173336 130.26,374.659997 130.26,375.18 C130.26,375.700003 130.393332,376.183331 130.66,376.63 C130.926668,377.076669 131.283331,377.429999 131.73,377.69 C132.176669,377.950001 132.659997,378.08 133.18,378.08 Z M133.18,371 C133.953337,371 134.65333,371.186665 135.28,371.56 C135.90667,371.933335 136.403332,372.436664 136.77,373.07 C137.136668,373.703336 137.32,374.406663 137.32,375.18 C137.32,375.953337 137.136668,376.65333 136.77,377.28 C136.403332,377.90667 135.90667,378.403331 135.28,378.77 C134.65333,379.136668 133.953337,379.32 133.18,379.32 C132.406663,379.32 131.703337,379.136668 131.07,378.77 C130.436664,378.403331 129.933335,377.90667 129.56,377.28 C129.186665,376.65333 129,375.953337 129,375.18 C129,374.406663 129.186665,373.703336 129.56,373.07 C129.933335,372.436664 130.436664,371.933335 131.07,371.56 C131.703337,371.186665 132.406663,371 133.18,371 Z M141.94,365.56 C141.486664,365.56 141.093335,365.400002 140.76,365.08 C140.426665,364.759998 140.26,364.373336 140.26,363.92 C140.26,363.466664 140.426665,363.073335 140.76,362.74 C141.093335,362.406665 141.483331,362.24 141.93,362.24 C142.376669,362.24 142.763332,362.409998 143.09,362.75 C143.416668,363.090002 143.58,363.479998 143.58,363.92 C143.58,364.360002 143.416668,364.743332 143.09,365.07 C142.763332,365.396668 142.380002,365.56 141.94,365.56 Z" id="directions_bike---material"></path>
        </g>
    </g>
</svg>
