<?xml version="1.0" encoding="UTF-8"?>
<svg width="11px" height="19px" viewBox="0 0 11 19" version="1.1" xmlns="http://www.w3.org/2000/svg" xmlns:xlink="http://www.w3.org/1999/xlink">
    <g stroke="none" stroke-width="1" fill="none" fill-rule="evenodd">
        <g transform="translate(-134.000000, -249.000000)" fill="#000000">
            <path d="M135.68,256 L135.68,258.82 L134,258.82 L134,254.92 L138.34,253.08 C138.42,253.08 138.529999,253.066667 138.67,253.04 C138.810001,253.013333 138.92,253 139,253 C139.560003,253 140.026665,253.273331 140.4,253.82 L141.26,255.14 C141.620002,255.753336 142.099997,256.239998 142.7,256.6 C143.340003,256.986669 144.046663,257.18 144.82,257.18 L144.82,258.82 C143.913329,258.82 143.060004,258.633335 142.26,258.26 C141.473329,257.886665 140.806669,257.380003 140.26,256.74 L139.74,259.24 L141.5,260.92 L141.5,267.18 L139.82,267.18 L139.82,262.18 L138.1,260.5 L136.58,267.18 L134.82,267.18 L137.16,255.42 L135.68,256 Z M140.26,252.56 C139.806664,252.56 139.413335,252.400002 139.08,252.08 C138.746665,251.759998 138.58,251.373336 138.58,250.92 C138.58,250.466664 138.746665,250.073335 139.08,249.74 C139.413335,249.406665 139.806664,249.24 140.26,249.24 C140.713336,249.24 141.106665,249.409998 141.44,249.75 C141.773335,250.090002 141.94,250.479998 141.94,250.92 C141.94,251.360002 141.770002,251.743332 141.43,252.07 C141.089998,252.396668 140.700002,252.56 140.26,252.56 Z" id="directions_walk---material"></path>
        </g>
    </g>
</svg>
